<?xml version="1.0" encoding="utf-8"?>
<!-- Generator: Adobe Illustrator 20.1.0, SVG Export Plug-In . SVG Version: 6.00 Build 0)  -->
<svg version="1.1" id="Layer_1" xmlns="http://www.w3.org/2000/svg" xmlns:xlink="http://www.w3.org/1999/xlink" x="0px" y="0px"
	 viewBox="0 0 512 640" style="enable-background:new 0 0 512 640;" xml:space="preserve">
<style type="text/css">
	.st0{fill:#444444;}
</style>
<g>
	<g>
		<path class="st0" d="M256,1C115.2,1,1,115.2,1,256s114.2,255,255,255s255-114.2,255-255S396.8,1,256,1z M322.7,371.9
			c-4.7,4.6-10.7,7-16.8,7c-6.1,0-12.2-2.3-16.8-7l-95.7-95.7c-1.4-0.9-2.8-2-4-3.2c-4.8-4.8-7-11-6.9-17.2
			c-0.1-6.2,2.2-12.5,6.9-17.2c1.2-1.2,2.6-2.3,4-3.2l95.3-95.3c9.3-9.3,24.4-9.3,33.7,0c9.3,9.3,9.3,24.4,0,33.7l-82.1,82.1
			l82.5,82.5C332,347.6,332,362.6,322.7,371.9z"/>
	</g>
</g>
</svg>
